# xmcd CD database file
# Copyright (C) 1993-1997  Ti Kan
#
# Track frame offsets:
#	150
#	22985
#	39985
#	65232
#	87157
#	109130
#	123610
#	144020
#	161870
#	179972
#	195142
#	210542
#	233940
#	243680
#
# Disc length: 3461 seconds
#
# Revision: 3
# Processed by: cddbd v1.4b41PL1 Copyright (c) Steve Scherf et al.
# Submitted via: xmcd 2.1 PL2
#
DISCID=c60d830e
DTITLE=Microwave Dave And The Nukes - Goodnight, Dear
DYEAR=1900
DGENRE=
TTITLE0=Last Call For Alcohol
TTITLE1=Pay Bo Diddley
TTITLE2=Born To Boogie Woogie
TTITLE3=Got My Mind Made Up
TTITLE4=Road Runner
TTITLE5=If The Four Winds Don't Change
TTITLE6=20% Alcohol
TTITLE7=Nothin' But The Blues
TTITLE8=Body And Fender Man
TTITLE9=Start Me To Drinkin'
TTITLE10=Atomic Powered
TTITLE11=Highway's Like A Woman
TTITLE12=Jesus Was Smart
TTITLE13=Peace In The Alley
EXTD=Blues Guitarist and Singer from Huntsville AL\nRegular at the Kaf
EXTD=feKlatsch in Huntsville, both\n  with The Nukes and Solo\n\nCopyrig
EXTD=ht 1995, Icehouse Records BLW 5500
EXTT0=
EXTT1=
EXTT2=
EXTT3=
EXTT4=
EXTT5=
EXTT6=
EXTT7=
EXTT8=
EXTT9=
EXTT10=
EXTT11=
EXTT12=
EXTT13=
PLAYORDER=
